<?xml version="1.0" encoding="utf-8"?>
<!-- Generator: Adobe Illustrator 25.0.1, SVG Export Plug-In . SVG Version: 6.00 Build 0)  -->
<svg version="1.1" id="Layer_1" xmlns="http://www.w3.org/2000/svg" xmlns:xlink="http://www.w3.org/1999/xlink" x="0px" y="0px"
	 viewBox="0 0 120 120" style="enable-background:new 0 0 120 120;" xml:space="preserve">
<style type="text/css">
	.st0{fill:#FFFFFF;}
	.st1{opacity:0.3;}
</style>
<path class="st0" d="M76.04,110.56L9.02,43.55c-9.68-9.68-9.68-25.39,0-35.07l0,0c9.68-9.68,25.39-9.68,35.07,0l67.01,67.01
	c9.68,9.68,9.68,25.39,0,35.07l0,0C101.42,120.25,85.72,120.25,76.04,110.56z"/>
<path class="st0" d="M44.09,110.56l67.01-67.01c9.68-9.68,9.68-25.39,0-35.07l0,0c-9.68-9.68-25.39-9.68-35.07,0L9.02,75.49
	c-9.68,9.68-9.68,25.39,0,35.07l0,0C18.71,120.25,34.41,120.25,44.09,110.56z"/>
<g class="st1">
	<path class="st0" d="M25,59.53l17.53,17.53l-33.5,33.5c-9.68-9.68-9.68-25.39,0-35.07L25,59.53z"/>
	<path class="st0" d="M111.12,8.48l-33.51,33.5L60.08,24.45L76.04,8.48C85.73-1.21,101.43-1.21,111.12,8.48z"/>
	<path class="st0" d="M42.53,77.06L60.08,94.6L44.1,110.57c-9.68,9.68-25.39,9.68-35.07,0v-0.01L42.53,77.06z"/>
	<path class="st0" d="M111.12,43.55L95.15,59.53L77.61,41.98l33.51-33.5C120.8,18.16,120.8,33.86,111.12,43.55z"/>
	<polygon class="st0" points="95.15,59.53 77.61,77.06 60.08,94.6 42.53,77.06 25,59.53 42.54,41.98 60.08,24.45 77.61,41.98 	"/>
	<path class="st0" d="M9.03,8.48l33.51,33.5L25,59.53L9.03,43.55C-0.66,33.86-0.66,18.16,9.03,8.48z"/>
	<path class="st0" d="M111.12,110.56L111.12,110.56c-9.68,9.69-25.39,9.69-35.08,0.01L60.08,94.6l17.54-17.54L111.12,110.56z"/>
	<path class="st0" d="M44.1,8.48l15.97,15.97L42.54,41.98L9.03,8.48C18.72-1.21,34.42-1.21,44.1,8.48z"/>
	<path class="st0" d="M111.12,110.56l-33.5-33.5l17.54-17.53l15.97,15.97C120.8,85.18,120.8,100.88,111.12,110.56z"/>
</g>
<polygon class="st0" points="42.52,41.99 24.98,59.52 42.52,77.06 60.05,94.59 60.05,24.45 "/>
<polygon class="st0" points="77.59,41.99 60.05,24.45 60.05,94.59 77.59,77.06 95.12,59.52 "/>
<g>
	<polygon class="st0" points="24.98,59.51 60.05,94.58 9.02,75.48 	"/>
	<polygon class="st0" points="95.14,59.51 60.07,24.43 111.1,43.54 	"/>
</g>
</svg>
