<?xml version="1.0" encoding="utf-8"?>
<!-- Generator: Adobe Illustrator 25.0.1, SVG Export Plug-In . SVG Version: 6.00 Build 0)  -->
<svg version="1.1" id="Layer_1" xmlns="http://www.w3.org/2000/svg" xmlns:xlink="http://www.w3.org/1999/xlink" x="0px" y="0px"
	 viewBox="0 0 120 120" style="enable-background:new 0 0 120 120;" xml:space="preserve">
<style type="text/css">
	.st0{fill:#FFFFFF;}
</style>
<path class="st0" d="M25.38,109.55c0-1.72,0.65-3.45,1.97-4.76l23.2-23.2l9.52-9.52l11.19-11.19l9.52,9.52L69.59,81.59l-9.52,9.52
	l-23.2,23.2"/>
<path class="st0" d="M117.7,30.7c0,1.72-0.66,3.45-1.97,4.76L90.3,60.89l-9.52-9.52l25.43-25.43c2.62-2.63,6.89-2.63,9.52,0
	C117.04,27.25,117.7,28.97,117.7,30.7z"/>
<path class="st0" d="M96.98,9.99c0,1.72-0.65,3.45-1.97,4.76L48.88,60.88l-9.52-9.52l11.19-11.19l9.52-9.52L85.5,5.23
	c2.63-2.63,6.89-2.63,9.52,0C96.33,6.54,96.98,8.27,96.98,9.99z"/>
<path class="st0" d="M39.36,70.41l-23.2,23.2c-2.63,2.63-6.89,2.63-9.52,0c-1.31-1.31-1.97-3.04-1.97-4.76
	c0-1.72,0.65-3.45,1.97-4.76l23.2-23.2L39.36,70.41z"/>
<path class="st0" d="M60.07,30.66l-9.52,9.52L25.12,14.75c-2.63-2.63-2.63-6.89,0-9.52c1.31-1.31,3.04-1.97,4.76-1.97
	c1.72,0,3.44,0.66,4.76,1.97L60.07,30.66z"/>
<path class="st0" d="M113.5,93.6c-1.31,1.31-3.04,1.97-4.76,1.97s-3.45-0.66-4.76-1.97L60.07,49.7l9.52-9.52l11.19,11.19l9.52,9.52
	l23.2,23.2C116.12,86.71,116.12,90.98,113.5,93.6z"/>
<path class="st0" d="M60.07,72.07l-9.52,9.52L4.42,35.46c-2.63-2.63-2.63-6.9,0-9.52c1.31-1.31,3.04-1.97,4.76-1.97
	c1.72,0,3.44,0.66,4.76,1.97l25.43,25.43l9.52,9.52L60.07,72.07z"/>
<path class="st0" d="M83.27,114.31l-23.2-23.2l9.52-9.52l23.2,23.2c2.63,2.63,2.63,6.9,0,9.52"/>
<g>
	<path class="st0" d="M29.9,79.71c0,0-0.25-19.14,0-18.89c0.25,0.25,9.52,9.37,9.52,9.37L29.9,79.71z"/>
	<path class="st0" d="M48.88,41.86c0,0,0.25,19.14,0,18.89c-0.25-0.25-9.52-9.37-9.52-9.37L48.88,41.86z"/>
	<path class="st0" d="M41.17,30.53c0,0,19.14-0.25,18.89,0s-9.37,9.52-9.37,9.52L41.17,30.53z"/>
	<path class="st0" d="M69.59,40.05c0,0,0.25,19.14,0,18.89c-0.25-0.25-9.52-9.37-9.52-9.37L69.59,40.05z"/>
	<path class="st0" d="M80.78,70.28c0,0-19.14,0.25-18.89,0c0.25-0.25,9.37-9.52,9.37-9.52L80.78,70.28z"/>
	<path class="st0" d="M50.55,81.47c0,0-0.25-19.14,0-18.89c0.25,0.25,9.52,9.37,9.52,9.37L50.55,81.47z"/>
	<path class="st0" d="M69.59,81.47c0,0,0.25,19.14,0,18.89c-0.25-0.25-9.52-9.37-9.52-9.37L69.59,81.47z"/>
	<path class="st0" d="M90.3,41.86c0,0,0.25,19.14,0,18.89c-0.25-0.25-9.52-9.37-9.52-9.37L90.3,41.86z"/>
</g>
<polygon class="st0" points="38.75,69.8 30.86,61.9 34.6,65.64 "/>
<polygon class="st0" points="60.07,72.07 71.26,60.89 73.43,63.06 60.07,49.7 48.89,60.89 "/>
<path class="st0" d="M36.87,114.31l23.2-23.2l4.76-4.76l4.76-4.76l11.19-11.19l-2.9-2.9l-1.86-1.86L64.83,76.83l-4.76,4.76
	l-32.72,32.72"/>
<path class="st0" d="M115.72,25.93L85.53,56.12l4.76,4.76l25.43-25.43C118.35,32.83,118.35,28.56,115.72,25.93z"/>
<path class="st0" d="M27.35,114.31l32.72-32.72l4.76-4.76l11.19-11.19l-2.59-2.59l-2.17-2.17L60.07,72.07l-4.76,4.76l-4.76,4.76l0,0
	l-23.2,23.2C24.72,107.42,24.72,111.68,27.35,114.31"/>
<path class="st0" d="M115.72,25.93c-2.63-2.63-6.89-2.63-9.52,0L80.77,51.37l4.76,4.76L115.72,25.93z"/>
<path class="st0" d="M34.6,65.64L6.64,93.6c-2.63-2.63-2.63-6.89,0-9.52l23.2-23.2l1.02,1.02L34.6,65.64z"/>
<path class="st0" d="M55.31,44.94l4.76-4.76l4.76-4.76L95.02,5.23c-1.31-1.31-3.04-1.97-4.76-1.97c-1.72,0-3.44,0.66-4.76,1.97
	L60.07,30.66l-4.76,4.76l-4.76,4.76L39.36,51.36l4.76,4.76L55.31,44.94z"/>
<path class="st0" d="M34.6,65.64L6.64,93.6c2.63,2.63,6.9,2.63,9.52,0l23.2-23.2l-0.61-0.61L34.6,65.64z"/>
<path class="st0" d="M60.07,40.18l-4.76,4.76L44.12,56.12l4.76,4.76L60.07,49.7l4.76-4.76l4.76-4.76l25.43-25.43
	c2.63-2.63,2.63-6.89,0-9.52L64.83,35.42L60.07,40.18z"/>
<path class="st0" d="M34.6,56.12L4.41,25.93c-2.63,2.63-2.63,6.9,0,9.52l25.43,25.43l0,0l1.02,1.02l7.9,7.9l0.61,0.61l0,0
	l11.19,11.19l4.76-4.76L34.6,56.12z"/>
<path class="st0" d="M92.79,114.31L64.83,86.35l-4.76,4.76l23.2,23.2"/>
<path class="st0" d="M55.31,76.83l4.76-4.76L48.89,60.89l-4.76-4.76l-4.76-4.76L13.93,25.93c-2.63-2.63-6.89-2.63-9.52,0L34.6,56.12
	L55.31,76.83z"/>
<path class="st0" d="M92.79,114.31c2.63-2.63,2.63-6.9,0-9.52l-23.2-23.2l-4.76,4.76L92.79,114.31"/>
<path class="st0" d="M80.77,51.37L69.59,40.18l-4.76,4.76l15.95,15.95l4.76,4.76l27.96,27.96c1.31-1.31,1.97-3.04,1.97-4.76
	c0-1.72-0.65-3.45-1.97-4.76l-23.2-23.2l-4.76-4.76L80.77,51.37z"/>
<path class="st0" d="M60.07,30.66L34.64,5.23c-2.63-2.63-6.89-2.63-9.52,0l30.19,30.19L60.07,30.66z"/>
<path class="st0" d="M80.77,60.89L64.83,44.94l-4.76,4.76l13.36,13.36l2.59,2.59l1.86,1.86l26.1,26.1c2.63,2.63,6.89,2.63,9.52,0
	L85.54,65.65L80.77,60.89z"/>
<path class="st0" d="M25.12,5.23c-2.63,2.63-2.63,6.89,0,9.52l25.43,25.43l4.76-4.76L25.12,5.23z"/>
</svg>
