<?xml version="1.0" encoding="utf-8"?>
<!-- Generator: Adobe Illustrator 25.0.1, SVG Export Plug-In . SVG Version: 6.00 Build 0)  -->
<svg version="1.1" id="Layer_1" xmlns="http://www.w3.org/2000/svg" xmlns:xlink="http://www.w3.org/1999/xlink" x="0px" y="0px"
	 viewBox="0 0 120 120" style="enable-background:new 0 0 120 120;" xml:space="preserve">
<style type="text/css">
	.st0{fill:#FFFFFF;}
	.st1{opacity:0.3;}
	.st2{opacity:0.3;fill:#FFFFFF;enable-background:new    ;}
	.st3{opacity:0.15;fill:#FFFFFF;enable-background:new    ;}
</style>
<g>
	<path class="st0" d="M9.79,61.82c1.62-2.29,3.56-4.41,5.8-6.28l6.99-5.87L44.84,31c0.97,1.35,2.13,2.61,3.45,3.73l11.78,9.89
		L40.4,61.1L28.07,71.45c-1.16,0.97-2.1,2.11-2.82,3.36c-2.78,4.81-2.18,11.13,2.09,15.34c4.59,4.53,11.93,4.65,16.97,0.66
		l15.73,13.2l-2.73,2.29c-13.73,11.53-34.22,9.87-45.94-3.62C1.24,91.02,1.17,73.98,9.79,61.82z"/>
	<path class="st0" d="M60.07,18.19L74.34,6.22c6.06,7.22,6.22,17.43,0.97,24.76L60.07,18.19z"/>
	<path class="st0" d="M60.07,77.61l19.65-16.5l8.37-7.02c2.82-2.36,6.09-3.84,9.46-4.42c6.89-1.23,14.21,1.17,19.02,6.91l-6.26,5.25
		L94.85,74.8L75.79,90.8c-0.1-0.08-0.19-0.15-0.29-0.23L60.07,77.61z"/>
</g>
<g>
	<path class="st0" d="M45.79,6.22l14.28,11.97l15.23,12.79l22.26,18.69c-3.38,0.58-6.64,2.06-9.46,4.42l-8.37,7.02L60.07,44.61
		l-11.78-9.89c-1.34-1.12-2.49-2.38-3.45-3.73C39.58,23.66,39.73,13.44,45.79,6.22z"/>
	<path class="st0" d="M25.25,74.8c0.72-1.24,1.66-2.39,2.82-3.36L40.4,61.1l19.67,16.5l15.45,12.97c0.1,0.08,0.19,0.15,0.29,0.23
		c5.04,3.99,12.39,3.88,16.97-0.66c4.27-4.21,4.85-10.55,2.09-15.34l15.47-12.98c8.63,12.14,8.55,29.18-1.6,40.87
		c-11.73,13.49-32.19,15.15-45.95,3.62l-2.73-2.29l-15.73-13.2L25.25,74.8z"/>
	<path class="st0" d="M3.53,56.57c4.82-5.73,12.14-8.13,19.03-6.91l-6.99,5.87c-2.24,1.88-4.17,3.99-5.8,6.28L3.53,56.57z"/>
</g>
<g class="st1">
	<path class="st0" d="M11.4,102.69c11.71,13.49,32.19,15.15,45.94,3.62l2.73-2.29l-7.86-6.6l-1.38,1.15
		c-4.25,3.56-9.46,5.32-14.61,5.32c-6.49,0-12.94-2.76-17.44-8.13c-6.71-8.01-6.97-19.29-1.33-27.51c1.15-1.66,2.51-3.19,4.13-4.54
		l2.78-2.33l8.18-6.85L52.2,38l-3.91-3.29c-1.34-1.12-2.49-2.38-3.45-3.73L22.57,49.67l-6.99,5.87c-0.9,0.76-1.75,1.56-2.56,2.39
		c-1.2,1.23-2.28,2.54-3.25,3.91C1.17,73.98,1.24,91.02,11.4,102.69z"/>
	<path class="st0" d="M67.23,24.21l8.07,6.77c5.05-7.06,5.1-16.79-0.32-23.96l-6.16,14.23C68.36,22.28,67.83,23.27,67.23,24.21z"/>
	<path class="st0" d="M68.81,21.24l6.16-14.23c-0.21-0.28-0.41-0.54-0.64-0.8L60.07,18.19l7.15,6.02
		C67.83,23.27,68.36,22.28,68.81,21.24z"/>
	<path class="st0" d="M45.16,7.02c0.21-0.28,0.41-0.54,0.64-0.8l14.28,11.97l7.15,6.02l8.07,6.77l22.26,18.69
		c-3.38,0.58-6.64,2.06-9.46,4.42l-0.5,0.43l-19.65-16.5l-7.87-6.6l-3.14-2.62c-1.56-1.31-2.93-2.86-4.02-4.57
		c-0.62-0.94-1.15-1.93-1.6-2.97L45.16,7.02z"/>
	<path class="st0" d="M45.16,7.02l6.16,14.23c0.44,1.04,0.98,2.02,1.6,2.97c1.1,1.71,2.46,3.26,4.02,4.57l3.14,2.62l7.87,6.6
		l19.65,16.5l-7.87,6.59L60.07,44.61l-7.87-6.6l-3.91-3.29c-1.34-1.12-2.49-2.38-3.45-3.73C39.77,23.92,39.73,14.19,45.16,7.02z"/>
	<path class="st0" d="M25.27,74.8c0.72-1.24,1.66-2.39,2.82-3.36l4.45-3.74l19.67,16.5l7.87,6.6l7.86,6.59l1.38,1.15
		c4.25,3.56,9.46,5.32,14.61,5.32c6.49,0,12.94-2.76,17.44-8.13c6.73-8.01,6.97-19.31,1.33-27.51l7.65-6.42
		c8.63,12.14,8.55,29.18-1.6,40.87c-11.71,13.52-32.19,15.18-45.94,3.65l-2.73-2.29l-7.86-6.6l-7.87-6.6L25.27,74.8z"/>
	<path class="st0" d="M17.45,68.24c1.15-1.66,2.51-3.19,4.13-4.54l2.78-2.33l8.18-6.85l19.67-16.5l7.87,6.6L40.42,61.1l-7.87,6.6
		l-4.45,3.74c-1.16,0.97-2.1,2.11-2.82,3.36c-2.78,4.81-2.18,11.13,2.09,15.34c4.59,4.53,11.93,4.65,16.97,0.66l7.87,6.6l-1.38,1.15
		c-4.25,3.56-9.46,5.32-14.61,5.32c-6.49,0-12.94-2.76-17.44-8.13C12.05,87.75,11.79,76.46,17.45,68.24z"/>
	<path class="st0" d="M15.59,55.54l6.99-5.87C16,48.51,9.03,50.63,4.22,55.81l8.83,2.1C13.82,57.1,14.69,56.3,15.59,55.54z"/>
	<path class="st0" d="M9.79,61.82c0.97-1.37,2.04-2.68,3.25-3.91l-8.83-2.1c-0.23,0.25-0.46,0.5-0.68,0.76L9.79,61.82z"/>
	<path class="st0" d="M60.07,77.61l19.65-16.5l7.87-6.59l0.51-0.43c2.82-2.36,6.09-3.84,9.46-4.42c6.57-1.16,13.53,0.97,18.34,6.15
		l-8.81,2.1l-6.26,1.49c-1.77,0.43-3.48,1.08-5.07,1.97c-1.19,0.64-2.29,1.39-3.33,2.27l-4.85,4.06l-19.65,16.5L60.07,77.61z"/>
	<path class="st0" d="M67.94,84.21l19.65-16.5l4.85-4.06c1.04-0.87,2.14-1.63,3.33-2.27c1.59-0.88,3.3-1.55,5.07-1.97l6.26-1.49
		l8.81-2.1c0.23,0.25,0.46,0.5,0.68,0.76l-6.26,5.25l-7.65,6.42l-7.82,6.56L75.8,90.8c-0.1-0.08-0.19-0.15-0.29-0.23L67.94,84.21z"
		/>
	<path class="st0" d="M32.53,67.71l7.87-6.6l19.67,16.5l7.87,6.6l7.58,6.37c0.1,0.08,0.19,0.15,0.29,0.23
		c5.04,3.99,12.39,3.88,16.97-0.66c4.27-4.21,4.85-10.55,2.09-15.34l7.82-6.56c5.65,8.2,5.4,19.5-1.33,27.51
		c-4.5,5.37-10.95,8.13-17.44,8.13c-5.15,0-10.36-1.75-14.61-5.32l-1.38-1.15l-7.86-6.59l-7.87-6.6L32.53,67.71z"/>
</g>
<g>
	<path class="st2" d="M68.77,70.29l-9,7.55l15.45,12.97c0.1,0.08,0.19,0.15,0.28,0.23l8.7-7.31C79.67,82.7,72.29,79.6,68.77,70.29z"
		/>
	<path class="st2" d="M75,31.22c2.62-3.66,3.89-8.04,3.76-12.4c-2.93-2.06-5.94-5.01-8.34-9.31l-10.65,8.94L75,31.22z"/>
	<path class="st2" d="M38.1,114.15c6.73-0.44,13.38-2.94,18.94-7.61l2.73-2.29l-15.73-13.2c-2.25,1.78-4.97,2.75-7.69,2.86
		C38.82,99.5,38.58,108.45,38.1,114.15z"/>
	<path class="st2" d="M48.08,54.65l11.68-9.81l-11.78-9.89c-1.34-1.12-2.49-2.38-3.45-3.73l-11.6,9.74
		C41.16,44.78,45.78,50.69,48.08,54.65z"/>
	<path class="st2" d="M27.78,71.68c-1.16,0.97-2.1,2.11-2.82,3.36l9.65,8.09c2.03-3.85,6.52-9.05,16.39-12.65l-10.9-9.16
		L27.78,71.68z"/>
	<path class="st2" d="M9.48,62.06c1.62-2.29,3.56-4.41,5.8-6.28l6.99-5.87c-3.65-0.65-7.42-0.28-10.88,1.08l-6.34,7.35L9.48,62.06z"
		/>
	<path class="st2" d="M69.28,52.83l10.14,8.51l8.37-7.02c2.82-2.36,6.09-3.84,9.46-4.42L83.33,38.22
		C79.19,46.02,73.77,50.4,69.28,52.83z"/>
	<path class="st3" d="M116.28,82.72c0.22-7.25-1.91-14.57-6.24-20.66L94.57,75.04c1.3,2.25,1.85,4.85,1.64,7.4
		C102.87,79.61,111.26,81.24,116.28,82.72z"/>
</g>
</svg>
