<?xml version="1.0" encoding="utf-8"?>
<!-- Generator: Adobe Illustrator 25.0.1, SVG Export Plug-In . SVG Version: 6.00 Build 0)  -->
<svg version="1.1" id="Layer_1" xmlns="http://www.w3.org/2000/svg" xmlns:xlink="http://www.w3.org/1999/xlink" x="0px" y="0px"
	 viewBox="0 0 120 120" style="enable-background:new 0 0 120 120;" xml:space="preserve">
<style type="text/css">
	.st0{fill:#FFFFFF;}
	.st1{fill:#FFFFFF;stroke:#A8AAAC;stroke-width:0.3712;stroke-miterlimit:10;}
	.st2{opacity:0.3;fill:#FFFFFF;}
	.st3{opacity:0.3;}
</style>
<path class="st0" d="M118.51,50.17v18.89c0,15.75-12.82,28.57-28.57,28.57H40.6c-4.49-0.07-8.11-3.74-8.11-8.25
	c0-4.51,3.62-8.18,8.11-8.25h49.34c6.66,0,12.07-5.41,12.07-12.07V50.17c0-6.65-5.41-12.07-12.07-12.07h-9.69
	c4.56,0,8.25-3.7,8.25-8.26c0-4.51-3.62-8.17-8.11-8.25h9.55C105.69,21.6,118.51,34.42,118.51,50.17z"/>
<path class="st0" d="M88.5,29.85c0,4.56-3.69,8.26-8.25,8.26H30.2c-6.66,0-12.07,5.41-12.07,12.07v18.89
	c0,6.65,5.41,12.07,12.07,12.07h10.4c-4.49,0.07-8.11,3.74-8.11,8.25c0,4.51,3.62,8.18,8.11,8.25H30.2
	c-15.75,0-28.57-12.82-28.57-28.57V50.17c0-15.75,12.82-28.57,28.57-28.57h50.18C84.88,21.68,88.5,25.34,88.5,29.85z"/>
<path class="st1" d="M80.38,21.6H80.1c0.05,0,0.09,0,0.14,0C80.29,21.6,80.34,21.6,80.38,21.6z"/>
<path class="st1" d="M40.88,81.13H40.6c0.05,0,0.09,0,0.14,0C40.78,81.12,40.83,81.12,40.88,81.13z"/>
<path class="st2" d="M89.94,21.6l-9.55,0c4.49,0.07,8.11,3.74,8.11,8.25c0,4.56-3.69,8.26-8.25,8.26h9.69
	c6.66,0,12.07,5.41,12.07,12.07v0.95l14.82-10.61C112.86,29.5,102.3,21.6,89.94,21.6z"/>
<g class="st3">
	<path class="st0" d="M1.63,57.94v3.31c0,21.73,17.97,19.83,17.97,19.83h9.59C23,80.56,18.13,75.37,18.13,69.06V50.17
		c0-6.65,5.41-12.07,12.07-12.07H19.6C19.6,38.11,1.63,36.21,1.63,57.94z"/>
	<path class="st0" d="M118.51,57.94v3.31c0,21.73-17.97,19.83-17.97,19.83h-9.59c6.18-0.52,11.05-5.71,11.05-12.02V50.17
		c0-6.65-5.41-12.07-12.07-12.07h10.6C100.54,38.11,118.51,36.21,118.51,57.94z"/>
	<path class="st0" d="M30.2,97.63l10.4,0c-4.49-0.07-8.11-3.74-8.11-8.25c0-4.51,3.62-8.18,8.11-8.25l-10.4,0
		c-5.66,0-10.41-3.91-11.72-9.17L6.82,85.46C12,92.81,20.55,97.63,30.2,97.63z"/>
</g>
</svg>
