<?xml version="1.0" encoding="utf-8"?>
<!-- Generator: Adobe Illustrator 25.0.1, SVG Export Plug-In . SVG Version: 6.00 Build 0)  -->
<svg version="1.1" id="Layer_1" xmlns="http://www.w3.org/2000/svg" xmlns:xlink="http://www.w3.org/1999/xlink" x="0px" y="0px"
	 viewBox="0 0 120 120" style="enable-background:new 0 0 120 120;" xml:space="preserve">
<style type="text/css">
	.st0{fill:#FFFFFF;}
	.st1{opacity:0.2;}
</style>
<path class="st0" d="M9.38,39.86c0.15-0.16,0.29-0.33,0.44-0.49C9.67,39.53,9.53,39.7,9.38,39.86z"/>
<path class="st0" d="M113.76,78.59L113.76,78.59L113.76,78.59c-0.11,0.14-0.22,0.29-0.32,0.44
	C113.54,78.88,113.66,78.74,113.76,78.59z"/>
<path class="st0" d="M10.56,38.61c0.12-0.13,0.25-0.25,0.37-0.38C10.81,38.36,10.69,38.48,10.56,38.61z"/>
<path class="st0" d="M13.28,36.17C13.29,36.17,13.29,36.17,13.28,36.17C13.29,36.17,13.29,36.17,13.28,36.17z"/>
<path class="st0" d="M7.28,42.49c0.15-0.21,0.3-0.42,0.46-0.62C7.58,42.07,7.43,42.28,7.28,42.49z"/>
<path class="st0" d="M11.85,37.39c0.08-0.07,0.16-0.15,0.25-0.22C12.01,37.24,11.93,37.31,11.85,37.39z"/>
<path class="st0" d="M69.7,86.57c11.75,8.15,27.08,7.24,37.73-1.22c-10.58,8.39-25.8,9.29-37.49,1.23l0,0L6.96,42.93
	c-0.45,0.65-0.89,1.31-1.3,2.01c-7.85,13.32-4.74,30.63,7.25,40.38c5.2,4.23,11.25,6.5,17.36,7c-0.05-0.1-0.09-0.2-0.14-0.3
	C24,78.63,39.6,65.71,51.72,74.11L69.7,86.57z"/>
<path class="st0" d="M8.29,41.15c0.15-0.19,0.31-0.38,0.46-0.57C8.6,40.77,8.45,40.96,8.29,41.15z"/>
<path class="st0" d="M10.94,38.23c0.3-0.29,0.6-0.57,0.91-0.85C11.54,37.66,11.23,37.94,10.94,38.23z"/>
<path class="st0" d="M6.96,42.93L6.96,42.93L6.96,42.93c0.11-0.14,0.22-0.29,0.32-0.44C7.17,42.63,7.06,42.78,6.96,42.93z"/>
<path class="st0" d="M8.75,40.58c0.21-0.25,0.42-0.48,0.63-0.72C9.17,40.1,8.96,40.34,8.75,40.58z"/>
<path class="st0" d="M9.82,39.37c0.24-0.26,0.49-0.51,0.74-0.76C10.31,38.86,10.06,39.11,9.82,39.37z"/>
<path class="st0" d="M7.74,41.86c0.18-0.24,0.37-0.48,0.56-0.71C8.11,41.38,7.92,41.62,7.74,41.86z"/>
<path class="st0" d="M12.09,37.17c0.39-0.34,0.79-0.68,1.19-1C12.88,36.49,12.48,36.82,12.09,37.17z"/>
<path class="st0" d="M50.78,34.93L50.78,34.93l62.97,43.65c0.45-0.65,0.89-1.31,1.3-2.01c7.85-13.32,4.74-30.63-7.25-40.38
	c-5.2-4.23-11.25-6.5-17.36-7c0.05,0.1,0.09,0.2,0.14,0.3c6.14,13.4-9.46,26.32-21.58,17.92L51.02,34.94
	c-11.75-8.15-27.08-7.24-37.73,1.22C23.87,27.78,39.09,26.87,50.78,34.93z"/>
<path class="st0" d="M113.44,79.03c-0.15,0.21-0.3,0.42-0.46,0.62C113.14,79.45,113.29,79.24,113.44,79.03z"/>
<path class="st0" d="M69.91,86.55c11.69,8.06,26.91,7.16,37.49-1.23c0,0,0,0,0,0c0.4-0.32,0.8-0.65,1.19-1
	c0.08-0.07,0.16-0.15,0.25-0.22c0.31-0.28,0.61-0.56,0.91-0.85c0.13-0.12,0.25-0.25,0.37-0.38c0.25-0.25,0.5-0.5,0.74-0.76
	c0.15-0.16,0.29-0.32,0.44-0.49c0.21-0.24,0.42-0.48,0.63-0.72c0.16-0.19,0.31-0.38,0.46-0.57c0.19-0.23,0.38-0.47,0.56-0.71
	c0.16-0.21,0.31-0.42,0.46-0.63c0.11-0.15,0.21-0.3,0.31-0.45L50.76,34.89l0,0c-11.69-8.06-26.91-7.16-37.49,1.23c0,0,0,0,0,0
	c-0.4,0.32-0.8,0.65-1.19,1c-0.08,0.07-0.16,0.15-0.25,0.22c-0.31,0.28-0.61,0.56-0.91,0.85c-0.13,0.12-0.25,0.25-0.37,0.38
	c-0.25,0.25-0.5,0.5-0.74,0.76c-0.15,0.16-0.29,0.32-0.44,0.49c-0.21,0.24-0.42,0.48-0.63,0.72c-0.16,0.19-0.31,0.38-0.46,0.57
	c-0.19,0.23-0.38,0.47-0.56,0.71c-0.16,0.21-0.31,0.42-0.46,0.62c-0.11,0.15-0.21,0.3-0.31,0.45L69.91,86.55L69.91,86.55z"/>
<g class="st1">
	<path class="st0" d="M52.53,74.54L6.94,42.93c-0.45,0.65-0.89,1.31-1.3,2.01C-2.2,58.26,0.91,75.57,12.9,85.32
		c5.2,4.23,11.25,6.5,17.36,7c-0.05-0.1-0.09-0.2-0.14-0.3c-6.14-13.4,9.46-26.32,21.58-17.92l0.77,0.53
		C52.49,74.61,52.51,74.57,52.53,74.54z"/>
	<path class="st0" d="M107.78,36.19c-5.2-4.23-11.25-6.5-17.36-7c0.05,0.1,0.09,0.2,0.14,0.3c5.95,12.99-8.52,25.53-20.45,18.64
		v0.22l43.63,30.25c0.45-0.65,0.89-1.31,1.3-2.01C122.88,63.26,119.77,45.95,107.78,36.19z"/>
</g>
<path class="st0" d="M69.67,47.86c-0.08-0.06-0.16-0.12-0.25-0.18c-0.3-0.21-0.61-0.4-0.92-0.59L51,34.96
	C36.63,25,16.91,28.57,6.94,42.94v0l42.82,29.69c0.48,0.43,0.99,0.83,1.53,1.21c0.54,0.37,1.1,0.71,1.67,1.01
	c7.02,3.7,15.85,1.66,20.48-5.02C78.38,62.69,76.68,52.92,69.67,47.86z"/>
</svg>
