<?xml version="1.0" encoding="utf-8"?>
<!-- Generator: Adobe Illustrator 25.0.1, SVG Export Plug-In . SVG Version: 6.00 Build 0)  -->
<svg version="1.1" id="Layer_1" xmlns="http://www.w3.org/2000/svg" xmlns:xlink="http://www.w3.org/1999/xlink" x="0px" y="0px"
	 viewBox="0 0 120 120" style="enable-background:new 0 0 120 120;" xml:space="preserve">
<style type="text/css">
	.st0{opacity:0.2;}
	.st1{fill:#FFFFFF;}
	.st2{opacity:0.2;fill:#FFFFFF;}
</style>
<g class="st0">
	<path class="st1" d="M25.34,75.53c2.37-2.37,5.39-3.7,8.49-3.99c-3.97-0.38-8.08,0.95-11.11,3.99l7.3,7.3
		c0.44-0.44,0.91-0.86,1.39-1.24L25.34,75.53z"/>
	<path class="st1" d="M43.79,77.71c0.11,0.01,0.21,0.01,0.32,0.02c-0.01-0.01-0.02-0.03-0.03-0.04
		C43.98,77.7,43.88,77.7,43.79,77.71z"/>
</g>
<path class="st1" d="M42.31,75.53c0.68,0.68,1.28,1.42,1.79,2.2c-5.04-0.46-10.24,1.24-14.09,5.09l-7.3-7.3
	C28.12,70.13,36.91,70.13,42.31,75.53z"/>
<path class="st1" d="M69.04,10.2l-7.33,7.33l30.88,30.88c4.21,4.21,4.21,11.05,0,15.26L60.11,96.14c-0.2,4.24-1.9,8.42-5.13,11.65
	l4.04,4.04l55.83-55.83c2.73-2.73,2.73-7.16,0-9.89L78.92,10.2"/>
<path class="st2" d="M69.04,10.2l-7.33,7.33l30.88,30.88c4.21,4.21,4.21,11.05,0,15.26L60.11,96.14c-0.2,4.24-1.9,8.42-5.13,11.65
	l4.04,4.04l1.24-1.24l-2.79-2.79c3.24-3.24,4.93-7.42,5.13-11.65l32.47-32.47c4.21-4.21,4.21-11.05,0-15.26L64.19,17.53l7.33-7.33"
	/>
<path class="st1" d="M89.9,51.1L59.02,20.22l-5.04-5.04c-2.73-2.73-7.16-2.73-9.89,0L3.23,56.04l9.98,9.98l6.82,6.82
	c6.89-6.89,18.07-6.89,24.97,0c1.78,1.78,3.09,3.84,3.95,6.04c2.48,6.34,1.17,13.81-3.95,18.93l4.04,4.04l10.62-10.62L89.9,60.99
	C92.63,58.25,92.63,53.83,89.9,51.1z"/>
<path class="st1" d="M47.26,97.81c5.12-5.12,6.43-12.6,3.95-18.93c-0.86-2.2-2.17-4.26-3.95-6.04c-3.74-3.74-8.73-5.43-13.61-5.12
	c4.13,0.26,8.19,1.96,11.35,5.12c1.78,1.78,3.09,3.84,3.95,6.04c2.48,6.34,1.17,13.81-3.95,18.93l4.04,4.04l1.13-1.13L47.26,97.81z"
	/>
<path class="st1" d="M50.16,13.23c-2.14-0.35-4.42,0.3-6.07,1.95L3.23,56.04l9.98,9.98l6.82,6.82c0.38-0.38,0.78-0.73,1.19-1.07
	l-5.75-5.75l-9.98-9.98l40.86-40.86C47.43,14.1,48.77,13.45,50.16,13.23"/>
</svg>
