<?xml version="1.0" encoding="utf-8"?>
<!-- Generator: Adobe Illustrator 25.0.1, SVG Export Plug-In . SVG Version: 6.00 Build 0)  -->
<svg version="1.1" id="Layer_1" xmlns="http://www.w3.org/2000/svg" xmlns:xlink="http://www.w3.org/1999/xlink" x="0px" y="0px"
	 viewBox="0 0 120 120" style="enable-background:new 0 0 120 120;" xml:space="preserve">
<style type="text/css">
	.st0{fill:#FFFFFF;}
	.st1{opacity:0.3;fill:#FFFFFF;}
</style>
<path class="st0" d="M79.68,20.27c-7.14,0-13.84,1.91-19.61,5.25C71.79,32.3,79.68,44.98,79.68,59.5H40.46
	c0,14.51,7.89,27.19,19.61,33.97c5.77,3.34,12.47,5.25,19.61,5.25c21.66,0,39.22-17.56,39.22-39.22
	C118.9,37.83,101.34,20.27,79.68,20.27z"/>
<path class="st0" d="M60.07,25.52C48.35,32.3,40.46,44.98,40.46,59.5h39.22C79.68,44.98,71.79,32.3,60.07,25.52z"/>
<path class="st0" d="M60.07,25.52C71.79,32.3,79.68,44.98,79.68,59.5H40.46c0,14.51,7.89,27.19,19.61,33.97
	c-5.77,3.34-12.47,5.25-19.61,5.25C18.8,98.71,1.24,81.15,1.24,59.5c0-21.66,17.56-39.22,39.22-39.22
	C47.6,20.27,54.3,22.19,60.07,25.52z"/>
<path class="st1" d="M40.46,59.5h39.22L60.09,93.48c-0.01,0-0.02-0.01-0.03-0.01C48.35,86.68,40.46,74.01,40.46,59.5z"/>
<path class="st1" d="M40.46,59.56c0,14.51,7.89,27.19,19.61,33.97c-5.77,3.34-12.47,5.25-19.61,5.25c-7.13,0-13.82-1.91-19.58-5.24
	L40.46,59.56L40.46,59.56z"/>
</svg>
