<?xml version="1.0" encoding="utf-8"?>
<!-- Generator: Adobe Illustrator 25.0.1, SVG Export Plug-In . SVG Version: 6.00 Build 0)  -->
<svg version="1.1" id="Layer_1" xmlns="http://www.w3.org/2000/svg" xmlns:xlink="http://www.w3.org/1999/xlink" x="0px" y="0px"
	 viewBox="0 0 120 120" style="enable-background:new 0 0 120 120;" xml:space="preserve">
<style type="text/css">
	.st0{fill:#FFFFFF;}
</style>
<path class="st0" d="M35.49,60.18c-5.47,5.64-9.02,13.15-9.58,21.46C29.04,83.15,32.55,84,36.25,84c0-6.9,2.93-13.12,7.62-17.47
	C40.76,64.85,37.93,62.71,35.49,60.18z M43.88,53.83c1.72,1.61,3.69,2.95,5.84,3.99c0.16-2.35,0.55-4.63,1.17-6.82
	C48.42,51.69,46.08,52.64,43.88,53.83z M69.24,51.01c0.62,2.19,1.01,4.47,1.17,6.82c2.15-1.03,4.11-2.39,5.84-3.99
	C74.05,52.64,71.71,51.68,69.24,51.01z"/>
<path class="st0" d="M60.07,107.8c9.45,0,17.6-5.5,21.45-13.46c1.51-3.13,2.36-6.63,2.36-10.34c0-6.9-2.93-13.12-7.62-17.47
	c3.12-1.68,5.94-3.83,8.38-6.35c5.47,5.64,9.02,13.15,9.58,21.46c0.05,0.77,0.08,1.55,0.08,2.35c0,3.18-0.44,6.27-1.25,9.19
	c-4.02,14.44-17.29,25.06-32.98,25.06"/>
<path class="st0" d="M60.07,118.23c-15.7,0-28.97-10.61-32.99-25.06c2.92,0.81,6,1.25,9.18,1.25c0.79,0,1.58-0.03,2.36-0.08
	c3.85,7.97,12.01,13.46,21.46,13.46"/>
<path class="st0" d="M94.22,38.73c-0.56,8.31-4.11,15.82-9.58,21.45c-2.44,2.52-5.27,4.67-8.38,6.35c-2.2,1.19-4.55,2.15-7.01,2.83
	c-2.19,0.62-4.47,1.01-6.82,1.17c-0.78,0.05-1.56,0.08-2.36,0.08c-0.79,0-1.58-0.03-2.36-0.08c-2.36-0.16-4.64-0.55-6.83-1.17
	c-2.46-0.69-4.81-1.64-7.01-2.83c-3.12-1.68-5.94-3.83-8.38-6.35c-5.47-5.63-9.02-13.14-9.58-21.45c-0.05-0.78-0.08-1.56-0.08-2.36
	c0-3.18,0.44-6.26,1.25-9.18C31.09,12.76,44.37,2.13,60.07,2.13c15.69,0,28.97,10.63,32.98,25.07c-2.92-0.81-6-1.25-9.18-1.25
	c-0.79,0-1.57,0.03-2.36,0.08c-3.85-7.98-12-13.47-21.45-13.47c-9.45,0-17.61,5.5-21.46,13.47c-1.51,3.13-2.36,6.63-2.36,10.34
	c0,6.89,2.93,13.11,7.62,17.45c1.72,1.61,3.69,2.95,5.84,3.99c3.13,1.51,6.64,2.36,10.35,2.36c3.7,0,7.22-0.84,10.34-2.36
	c2.15-1.03,4.11-2.39,5.84-3.99c4.69-4.35,7.62-10.56,7.62-17.45C87.59,36.38,91.09,37.22,94.22,38.73z"/>
<path class="st0" d="M38.61,26.03c-1.51,3.13-2.36,6.63-2.36,10.34c6.89,0,13.1,2.93,17.45,7.61c1.68-3.12,3.84-5.95,6.36-8.39
	C54.43,30.14,46.93,26.6,38.61,26.03z M62.43,70.53c1.04,2.15,2.4,4.12,3.99,5.85c1.19-2.2,2.15-4.56,2.83-7.02
	C67.05,69.97,64.77,70.37,62.43,70.53z"/>
<path class="st0" d="M70.41,57.83c-3.13,1.51-6.64,2.36-10.34,2.36c0-3.71,0.84-7.22,2.36-10.34c1.04-2.15,2.4-4.11,3.99-5.84
	c1.19,2.2,2.15,4.55,2.83,7.01C69.86,53.2,70.26,55.48,70.41,57.83z"/>
<path class="st0" d="M60.07,84.77c-5.64,5.46-13.14,9.01-21.46,9.57c-0.77,0.05-1.56,0.08-2.36,0.08c-3.18,0-6.26-0.44-9.18-1.25
	C12.65,89.16,2.02,75.89,2.02,60.18S12.65,31.22,27.08,27.2c-0.81,2.92-1.25,6-1.25,9.18c0,0.79,0.03,1.57,0.08,2.36
	c-7.97,3.85-13.46,12-13.46,21.45c0,9.45,5.49,17.6,13.46,21.46C29.04,83.15,32.55,84,36.25,84c6.89,0,13.11-2.93,17.45-7.62
	C55.39,79.49,57.55,82.33,60.07,84.77z"/>
<path class="st0" d="M83.87,84c0,3.71-0.84,7.22-2.36,10.34c-8.31-0.56-15.82-4.11-21.45-9.57c-2.52-2.44-4.68-5.28-6.36-8.39
	c-1.19-2.2-2.15-4.56-2.83-7.02c2.19,0.62,4.47,1.01,6.83,1.17c0.77,0.05,1.56,0.08,2.36,0.08c0.79,0,1.57-0.03,2.36-0.08
	c1.04,2.15,2.4,4.12,3.99,5.85C70.77,81.07,76.98,84,83.87,84z"/>
<path class="st0" d="M118.12,60.18c0,15.7-10.63,28.98-25.07,32.99c0.81-2.92,1.25-6.01,1.25-9.19c0-0.79-0.03-1.57-0.08-2.35
	c7.97-3.86,13.46-12.01,13.46-21.46c0-9.45-5.5-17.6-13.46-21.45c-3.13-1.51-6.63-2.36-10.34-2.36c-6.89,0-13.11,2.93-17.45,7.62
	c-1.6,1.73-2.95,3.69-3.99,5.84c-1.51,3.13-2.36,6.63-2.36,10.34c-3.71,0-7.23-0.84-10.35-2.36c0.16-2.35,0.55-4.63,1.17-6.82
	c0.68-2.46,1.64-4.81,2.83-7.02c1.68-3.12,3.84-5.95,6.36-8.39c5.63-5.45,13.14-9,21.45-9.56c0.78-0.05,1.56-0.08,2.36-0.08
	c3.18,0,6.26,0.44,9.18,1.25C107.49,31.22,118.12,44.48,118.12,60.18z"/>
<path class="st0" d="M62.54,70.53c1.04,2.15,2.4,4.12,3.99,5.85c1.19-2.2,2.15-4.56,2.83-7.02C67.17,69.97,64.89,70.37,62.54,70.53z
	"/>
<path class="st0" d="M70.53,57.83c-3.13,1.51-6.64,2.36-10.34,2.36c0-3.71,0.84-7.22,2.36-10.34c1.04-2.15,2.4-4.11,3.99-5.84
	c1.19,2.2,2.15,4.55,2.83,7.01C69.97,53.2,70.37,55.48,70.53,57.83z"/>
<path class="st0" d="M43.99,66.53c-3.12-1.68-5.94-3.83-8.38-6.35c-3.22,3.31-5.76,7.28-7.43,11.66c2.69,2.48,5.67,4.65,8.88,6.47
	C38.18,73.72,40.63,69.65,43.99,66.53z"/>
<path class="st0" d="M76.37,66.53c3.51,3.25,6.03,7.55,7.08,12.39c3.26-1.74,6.29-3.84,9.04-6.25c-1.66-4.72-4.32-8.97-7.74-12.49
	C82.31,62.71,79.48,64.85,76.37,66.53z"/>
<path class="st0" d="M66.53,76.38c-1.6-1.73-2.95-3.7-3.99-5.85c-0.78,0.05-1.56,0.08-2.36,0.08c-0.79,0-1.58-0.03-2.36-0.08
	c-2.36-0.16-4.64-0.55-6.83-1.17c0.68,2.46,1.64,4.82,2.83,7.02c1.68,3.12,3.84,5.95,6.36,8.39c0.37,0.36,0.74,0.7,1.13,1.04
	l7.16-7.58C67.79,77.65,67.14,77.03,66.53,76.38z"/>
<path class="st0" d="M53.82,43.99c-1.19,2.21-2.15,4.56-2.83,7.02c-0.62,2.19-1.01,4.47-1.17,6.82c3.13,1.51,6.64,2.36,10.35,2.36
	c0-3.71,0.84-7.22,2.36-10.34c0.55-1.14,1.2-2.22,1.92-3.25l-9.61-4.34C54.5,42.82,54.14,43.39,53.82,43.99z"/>
<path class="st0" d="M81.63,26.03c0.78-0.05,1.56-0.08,2.36-0.08c3.18,0,6.26,0.44,9.18,1.25c-1.5-5.41-4.31-10.28-8.05-14.26
	l-12.55,3.1C76.46,18.42,79.63,21.89,81.63,26.03z"/>
<path class="st0" d="M83.99,36.38c0,5.35-1.77,10.29-4.76,14.26l9.98,3.86c2.9-4.63,4.73-10,5.12-15.76
	C91.2,37.22,87.7,36.38,83.99,36.38z"/>
<path class="st0" d="M36.3,36.38c5.41,0,10.39,1.81,14.39,4.85c1.32-2.8,2.08-5.92,2.08-9.23c0-0.63-0.04-1.25-0.09-1.87
	c-4.22-2.3-8.97-3.75-14.02-4.1C37.15,29.16,36.3,32.67,36.3,36.38z"/>
<path class="st0" d="M25.96,38.73c-0.05-0.78-0.08-1.56-0.08-2.36c0-3.18,0.44-6.26,1.25-9.18c-6.65,1.85-12.49,5.67-16.86,10.78
	c1.07,3.72,3.1,7.03,5.82,9.64C18.46,43.8,21.89,40.7,25.96,38.73z"/>
<path class="st0" d="M36.37,84c0-5.39,1.79-10.35,4.8-14.34c-2.98-1.62-6.39-2.54-10.01-2.54c-0.27,0-0.52,0.03-0.79,0.04
	c-2.46,4.33-4,9.24-4.35,14.48C29.15,83.15,32.67,84,36.37,84z"/>
<path class="st0" d="M36.27,108.47c3.7-0.93,7.02-2.82,9.65-5.41c-3.04-2.28-5.52-5.26-7.19-8.72c-0.77,0.05-1.56,0.08-2.36,0.08
	c-3.18,0-6.26-0.44-9.18-1.25C28.83,99.06,32.01,104.31,36.27,108.47"/>
<path class="st0" d="M65.1,88.72c4.8,3.19,10.45,5.2,16.53,5.62c1.51-3.13,2.36-6.63,2.36-10.34c-6.22,0-11.88-2.39-16.13-6.31
	c-1.77,3.08-2.79,6.63-2.79,10.43C65.07,88.33,65.1,88.52,65.1,88.72z"/>
<path class="st0" d="M94.33,81.64c0.05,0.77,0.08,1.55,0.08,2.35c0,3.18-0.44,6.27-1.25,9.19c5.18-1.44,9.86-4.07,13.74-7.57
	c-0.47-3.94-2.03-7.54-4.38-10.5C100.32,77.84,97.53,80.09,94.33,81.64z"/>
</svg>
