<?xml version="1.0" encoding="utf-8"?>
<!-- Generator: Adobe Illustrator 25.0.1, SVG Export Plug-In . SVG Version: 6.00 Build 0)  -->
<svg version="1.1" id="Layer_1" xmlns="http://www.w3.org/2000/svg" xmlns:xlink="http://www.w3.org/1999/xlink" x="0px" y="0px"
	 viewBox="0 0 120 120" style="enable-background:new 0 0 120 120;" xml:space="preserve">
<style type="text/css">
	.st0{fill:#FFFFFF;}
	.st1{opacity:0.3;fill:#FFFFFF;}
</style>
<polyline class="st0" points="40.97,98.46 2.81,60.3 40.97,22.14 60.05,41.22 66.37,47.55 79.12,60.3 66.37,73.06 60.05,66.73 
	66.48,60.3 60.05,53.87 53.72,47.54 40.97,34.79 15.46,60.3 40.97,85.81 53.72,73.06 60.05,79.38 40.97,98.46 "/>
<polyline class="st0" points="79.12,98.08 60.05,79 53.72,72.68 40.97,59.92 53.72,47.17 60.05,53.5 53.62,59.92 60.05,66.35 
	79.12,85.43 104.63,59.92 79.12,34.42 66.37,47.17 60.05,40.85 79.12,21.77 117.28,59.92 "/>
<line class="st0" x1="117.28" y1="59.92" x2="79.12" y2="98.08"/>
<polygon class="st0" points="56.93,70.03 60.09,73.19 63.25,76.36 79.17,92.27 111,60.44 79.17,28.61 63.25,44.52 66.42,47.69 
	79.17,34.93 104.67,60.44 79.17,85.95 66.42,73.19 63.25,70.03 60.09,66.87 53.66,60.44 60.09,54.01 56.93,50.85 47.34,60.44 "/>
<polyline class="st0" points="41.01,98.6 60.09,79.52 56.93,76.36 41.01,92.27 9.18,60.44 41.01,28.61 56.93,44.52 60.09,47.68 
	63.25,50.85 72.84,60.44 63.25,70.03 66.42,73.19 79.17,60.44 66.42,47.69 63.25,44.52 60.09,41.36 41.01,22.28 2.85,60.44 
	41.01,98.6 "/>
<polygon class="st0" points="63.25,50.85 60.09,47.68 56.92,44.52 41.01,28.61 9.18,60.44 41.01,92.27 56.92,76.36 53.76,73.19 
	41.01,85.95 15.5,60.44 41.01,34.93 53.76,47.68 56.92,50.85 60.09,54.01 66.52,60.44 60.09,66.87 63.25,70.03 72.84,60.44 "/>
<polyline class="st0" points="117.32,60.44 79.17,22.28 60.09,41.36 63.25,44.52 79.17,28.61 111,60.44 79.17,92.27 63.25,76.36 
	60.09,73.19 56.93,70.03 47.34,60.44 56.93,50.85 53.76,47.68 41.01,60.44 53.76,73.19 60.09,79.52 79.17,98.6 "/>
<line class="st0" x1="79.17" y1="98.6" x2="117.32" y2="60.44"/>
<polygon class="st1" points="60.09,53.87 53.77,47.54 45.98,55.33 54.04,59.92 "/>
<path class="st1" d="M60.09,41.22l6.33,6.33l10.01-10.02c-1.7-1.64-4.27-4.07-6.49-6.17L60.09,41.22z"/>
<rect x="46.56" y="76.03" transform="matrix(0.7071 -0.7071 0.7071 0.7071 -41.5111 60.7887)" class="st1" width="12.12" height="8.94"/>
<polygon class="st1" points="66.4,73.06 72.48,66.97 65.35,61.45 60.07,66.73 "/>
</svg>
