<?xml version="1.0" encoding="utf-8"?>
<!-- Generator: Adobe Illustrator 25.0.1, SVG Export Plug-In . SVG Version: 6.00 Build 0)  -->
<svg version="1.1" id="Layer_1" xmlns="http://www.w3.org/2000/svg" xmlns:xlink="http://www.w3.org/1999/xlink" x="0px" y="0px"
	 viewBox="0 0 120 120" style="enable-background:new 0 0 120 120;" xml:space="preserve">
<style type="text/css">
	.st0{fill:#FFFFFF;}
	.st1{opacity:0.3;}
	.st2{opacity:0.4;}
</style>
<g>
	<path class="st0" d="M47.59,27.15c1.79,0,3.56,0.68,4.92,2.04c2.72,2.72,2.72,7.13,0,9.84c-2.01,2.01-3.13,4.71-3.13,7.56
		s1.11,5.53,3.13,7.56c2.01,2.01,4.71,3.13,7.56,3.13c2.85,0,5.53-1.11,7.56-3.13c2.01-2.01,3.13-4.71,3.13-7.56
		c0-2.85-1.11-5.55-3.13-7.56c-2.72-2.72-2.72-7.13,0-9.84c2.72-2.72,7.12-2.72,9.84,0c4.65,4.65,7.21,10.84,7.21,17.4
		c0,6.58-2.55,12.75-7.21,17.4c-4.65,4.65-10.84,7.21-17.4,7.21c-6.58,0-12.75-2.57-17.4-7.21c-4.65-4.65-7.21-10.84-7.21-17.4
		c0-6.58,2.55-12.75,7.21-17.4C44.03,27.83,45.8,27.15,47.59,27.15z"/>
</g>
<g class="st1">
	<path class="st0" d="M48.41,59.86c6.6,5.83,16.72,5.83,23.32,0c6.17-5.45,7.57-14.07,4.23-20.96c-1.8-3.7-2.96-7.66-3.29-11.73
		c-1.82-0.03-3.65,0.65-5.04,2.03c-2.72,2.72-2.72,7.13,0,9.84c2.01,2.01,3.13,4.71,3.13,7.56s-1.11,5.53-3.13,7.56
		c-4.17,4.17-10.95,4.17-15.12,0s-4.17-10.95,0-15.12c2.72-2.72,2.72-7.13,0-9.84c-1.36-1.36-3.13-2.04-4.92-2.04
		c-0.03,0-0.07,0-0.1,0c-0.33,4.07-1.5,8.03-3.29,11.73C40.84,45.79,42.24,54.42,48.41,59.86z"/>
	<path class="st0" d="M42.67,64c9.6,9.6,25.22,9.6,34.81,0c4.65-4.65,7.21-10.84,7.21-17.4c0-6.58-2.55-12.75-7.21-17.4
		c-1.33-1.33-3.08-2.01-4.82-2.03c0.33,4.07,1.5,8.03,3.29,11.73c3.35,6.89,1.94,15.52-4.23,20.96c-6.6,5.83-16.72,5.83-23.32,0
		c-6.17-5.45-7.57-14.07-4.23-20.96c1.8-3.7,2.96-7.66,3.29-11.73c-1.74,0.03-3.49,0.7-4.82,2.03C33.06,38.8,33.06,54.42,42.67,64z"
		/>
</g>
<g>
	<path class="st0" d="M62.57,98.7C33.12,100.12,8.68,76.08,8.68,46.6V19.15c0-0.04,0.03-0.07,0.07-0.07h0.78
		c15.3,0,27.72,12.41,27.72,27.72l0,0c0,13.38,10.95,24.18,24.3,23.33c11.91-0.77,21.36-10.7,21.36-22.78v-0.54
		c0-15.3,12.41-27.72,27.72-27.72h0.78c0.04,0,0.07,0.03,0.07,0.07v28.2C111.47,74.87,89.74,97.39,62.57,98.7z"/>
</g>
<g class="st2">
	<path class="st0" d="M60.07,84.71c20.5,0,37.12-16.62,37.12-37.12V22.81c-8.51,4.74-14.28,13.82-14.28,24.24v0.54
		c0,12.1-9.46,22.03-21.36,22.78c-13.35,0.85-24.3-9.96-24.3-23.33l0,0c0-10.44-5.77-19.52-14.28-24.24v24.79
		C22.95,68.1,39.57,84.71,60.07,84.71z"/>
	<path class="st0" d="M111.4,19.34h-0.78c-4.88,0-9.46,1.26-13.43,3.48v24.79c0,20.5-16.62,37.12-37.12,37.12
		S22.95,68.1,22.95,47.61V22.81c-3.99-2.21-8.57-3.48-13.43-3.48H8.74c-0.04,0-0.07,0.03-0.07,0.07v27.43
		c0,29.48,24.44,53.52,53.89,52.1c27.19-1.3,48.91-23.83,48.91-51.33V19.39C111.47,19.37,111.43,19.34,111.4,19.34z"/>
</g>
</svg>
