<?xml version="1.0" encoding="utf-8"?>
<!-- Generator: Adobe Illustrator 25.0.1, SVG Export Plug-In . SVG Version: 6.00 Build 0)  -->
<svg version="1.1" id="Layer_1" xmlns="http://www.w3.org/2000/svg" xmlns:xlink="http://www.w3.org/1999/xlink" x="0px" y="0px"
	 viewBox="0 0 120 120" style="enable-background:new 0 0 120 120;" xml:space="preserve">
<style type="text/css">
	.st0{fill:#FFFFFF;stroke:#7883B7;stroke-width:0.2146;stroke-miterlimit:10;}
	.st1{fill:#FFFFFF;}
	.st2{opacity:0.5;fill:#FFFFFF;}
</style>
<g>
	<path class="st0" d="M94.9,97.36c-2.65,2.21-5.59,4.07-8.77,5.5C89.23,101.29,92.16,99.45,94.9,97.36z"/>
	<path class="st1" d="M70.43,74.33c2.6,0.02,5.15-0.22,7.61-0.69c-4.87,3.97-11.1,6.33-17.87,6.27
		c-12.86-0.11-23.61-8.92-26.74-20.78c0.61-2.53,1.48-4.96,2.56-7.27C41.92,64.99,55.07,74.19,70.43,74.33z"/>
	<path class="st1" d="M100.26,11.25c10.7,10.46,17.29,25.1,17.15,41.25c-0.16,18.33-8.96,34.56-22.5,44.87
		c8.29-6.92,13.6-17.29,13.7-28.93c0.05-5.69-1.15-11.1-3.35-15.97c-4.7-10.43-13.97-18.38-25.27-21.28l19.9-19.56L100.26,11.25z"/>
	<path class="st1" d="M21.22,10.62l13.35,13.59l7.04,7.16l6.07,6.17c-4.97,3.72-9.01,8.62-11.69,14.3c-1.09,2.3-1.95,4.73-2.56,7.27
		c-0.67,2.77-1.04,5.67-1.06,8.65c-0.18,21.05,16.73,38.26,37.78,38.45c5.69,0.05,11.11-1.15,15.98-3.35
		c-7.87,3.99-16.78,6.2-26.21,6.12C28.45,108.7,3.15,82.97,3.43,51.5C3.57,35.38,10.38,20.89,21.22,10.62z"/>
	<path class="st1" d="M79.97,31.18c11.31,2.89,20.57,10.84,25.27,21.28c2.19,4.87,3.4,10.28,3.35,15.97
		c-0.1,11.64-5.41,22.01-13.7,28.93c-2.74,2.09-5.67,3.93-8.77,5.5c-4.87,2.19-10.28,3.4-15.98,3.35
		c-21.05-0.18-37.97-17.4-37.78-38.45c0.03-2.98,0.39-5.87,1.06-8.65c3.13,11.87,13.87,20.67,26.74,20.78
		c6.77,0.06,13-2.3,17.87-6.27c6.21-5.06,10.21-12.75,10.28-21.39c0.07-8.12-3.33-15.45-8.82-20.6L79.97,31.18z"/>
	<g>
		<path class="st2" d="M33.43,59.12c-0.67,2.77-1.04,5.67-1.06,8.65c-0.18,21.05,16.73,38.26,37.78,38.45
			c5.21,0.05,10.19-0.96,14.74-2.82c-9.25-5.47-20.97-13.81-26.92-23.6c-1.78-2.93-3.04-5.99-3.57-9.15
			c-8.15-3.88-14.69-10.56-18.4-18.79C34.91,54.16,34.04,56.58,33.43,59.12z"/>
		<path class="st2" d="M108.6,68.43c0.05-5.69-1.15-11.1-3.35-15.97c-4.7-10.43-13.97-18.38-25.27-21.28l-0.47,0.46
			c5.49,5.15,8.89,12.48,8.82,20.6c-0.08,8.64-4.07,16.33-10.28,21.39c-0.17,0.14-0.34,0.27-0.52,0.4
			c4.55,8.43,9.73,17.91,14.01,25.7c1.15-0.75,2.27-1.54,3.37-2.37C103.19,90.44,108.5,80.07,108.6,68.43z"/>
	</g>
</g>
</svg>
